<?xml version="1.0" encoding="utf-8"?>
<!-- Generator: Adobe Illustrator 17.0.0, SVG Export Plug-In . SVG Version: 6.00 Build 0)  -->
<!DOCTYPE svg PUBLIC "-//W3C//DTD SVG 1.1//EN" "http://www.w3.org/Graphics/SVG/1.1/DTD/svg11.dtd">
<svg version="1.1" id="Layer_1" xmlns="http://www.w3.org/2000/svg" xmlns:xlink="http://www.w3.org/1999/xlink" x="0px" y="0px"
	 width="81.396px" height="93.988px" viewBox="0 0 81.396 93.988" enable-background="new 0 0 81.396 93.988" xml:space="preserve">
<polygon fill="none" stroke="#FFFFFF" stroke-miterlimit="10" points="0,23.497 40.698,0 81.396,23.497 81.396,70.491 
	40.698,93.988 0,70.491 "/>
<rect x="32.661" y="37.952" fill="none" stroke="#FFFFFF" stroke-miterlimit="10" width="16.074" height="18.083"/>
<line fill="none" stroke="#FFFFFF" stroke-miterlimit="10" x1="36.177" y1="42.641" x2="45.219" y2="42.641"/>
<line fill="none" stroke="#FFFFFF" stroke-miterlimit="10" x1="36.177" y1="47.161" x2="45.219" y2="47.161"/>
<line fill="none" stroke="#FFFFFF" stroke-miterlimit="10" x1="36.177" y1="51.682" x2="45.219" y2="51.682"/>
<rect x="10.732" y="37.952" fill="none" stroke="#FFFFFF" stroke-miterlimit="10" width="16.074" height="18.083"/>
<line fill="none" stroke="#FFFFFF" stroke-miterlimit="10" x1="14.248" y1="42.641" x2="23.289" y2="42.641"/>
<line fill="none" stroke="#FFFFFF" stroke-miterlimit="10" x1="14.248" y1="47.161" x2="23.289" y2="47.161"/>
<line fill="none" stroke="#FFFFFF" stroke-miterlimit="10" x1="14.248" y1="51.682" x2="23.289" y2="51.682"/>
<rect x="53.919" y="37.952" fill="none" stroke="#FFFFFF" stroke-miterlimit="10" width="16.074" height="18.083"/>
<line fill="none" stroke="#FFFFFF" stroke-miterlimit="10" x1="57.435" y1="42.641" x2="66.477" y2="42.641"/>
<line fill="none" stroke="#FFFFFF" stroke-miterlimit="10" x1="57.435" y1="47.161" x2="66.477" y2="47.161"/>
<line fill="none" stroke="#FFFFFF" stroke-miterlimit="10" x1="57.435" y1="51.682" x2="66.477" y2="51.682"/>
<line fill="none" stroke="#FFFFFF" stroke-miterlimit="10" x1="18.769" y1="63.607" x2="61.956" y2="63.607"/>
<line fill="none" stroke="#FFFFFF" stroke-miterlimit="10" x1="18.769" y1="30.026" x2="61.956" y2="30.026"/>
</svg>
