<?xml version="1.0" encoding="utf-8"?>
<!-- Generator: Adobe Illustrator 17.0.0, SVG Export Plug-In . SVG Version: 6.00 Build 0)  -->
<!DOCTYPE svg PUBLIC "-//W3C//DTD SVG 1.1//EN" "http://www.w3.org/Graphics/SVG/1.1/DTD/svg11.dtd">
<svg version="1.1" id="Layer_1" xmlns="http://www.w3.org/2000/svg" xmlns:xlink="http://www.w3.org/1999/xlink" x="0px" y="0px"
	 width="84.25px" height="97.738px" viewBox="0 0 84.25 97.738" enable-background="new 0 0 84.25 97.738" xml:space="preserve">
<g>
	<polygon fill="none" stroke="#9BC471" stroke-miterlimit="10" points="1.427,25.372 42.125,1.875 82.823,25.372 82.823,72.366 
		42.125,95.863 1.427,72.366 	"/>
	<g>
		<path fill="none" stroke="#9BC471" stroke-miterlimit="10" d="M33.035,56.536c0,1.1-0.9,2-2,2H15.702c-1.1,0-2-0.9-2-2V41.202
			c0-1.1,0.9-2,2-2h15.333c1.1,0,2,0.9,2,2V56.536z"/>
		<path fill="none" stroke="#9BC471" stroke-miterlimit="10" d="M33.035,56.536c0,1.1-0.9,2-2,2H15.702c-1.1,0-2-0.9-2-2V41.202
			c0-1.1,0.9-2,2-2h15.333c1.1,0,2,0.9,2,2V56.536z"/>
	</g>
	<g>
		<path fill="none" stroke="#9BC471" stroke-miterlimit="10" d="M70.702,56.536c0,1.1-0.9,2-2,2H53.369c-1.1,0-2-0.9-2-2V41.202
			c0-1.1,0.9-2,2-2h15.333c1.1,0,2,0.9,2,2V56.536z"/>
		<path fill="none" stroke="#9BC471" stroke-miterlimit="10" d="M70.702,56.536c0,1.1-0.9,2-2,2H53.369c-1.1,0-2-0.9-2-2V41.202
			c0-1.1,0.9-2,2-2h15.333c1.1,0,2,0.9,2,2V56.536z"/>
	</g>
	<g>
		<path fill="#9BC471" d="M42.453,48.101v2.17h-0.647v-2.17h-2.184v-0.696h2.184v-2.171h0.647v2.171h2.171v0.696H42.453z"/>
	</g>
</g>
</svg>
