<?xml version="1.0" encoding="utf-8"?>
<!-- Generator: Adobe Illustrator 17.0.0, SVG Export Plug-In . SVG Version: 6.00 Build 0)  -->
<!DOCTYPE svg PUBLIC "-//W3C//DTD SVG 1.1//EN" "http://www.w3.org/Graphics/SVG/1.1/DTD/svg11.dtd">
<svg version="1.1" id="Layer_1" xmlns="http://www.w3.org/2000/svg" xmlns:xlink="http://www.w3.org/1999/xlink" x="0px" y="0px"
	 width="84.25px" height="97.738px" viewBox="0 0 84.25 97.738" enable-background="new 0 0 84.25 97.738" xml:space="preserve">
<polygon fill="none" stroke="#F5518E" stroke-miterlimit="10" points="1.427,25.372 42.125,1.875 82.823,25.372 82.823,72.366 
	42.125,95.863 1.427,72.366 "/>
<g>
	<path fill="#F5518E" d="M18.261,41.783v3.046c-0.827,0.659-1.991,1.103-3.118,1.103c-2.435,0-4.378-1.883-4.378-4.246
		s1.955-4.222,4.426-4.222c1.163,0,2.291,0.444,3.095,1.151l-0.552,0.72c-0.684-0.612-1.607-0.972-2.543-0.972
		c-1.919,0-3.454,1.476-3.454,3.322c0,1.859,1.547,3.334,3.466,3.334c0.756,0,1.56-0.264,2.207-0.708v-2.53H18.261z"/>
	<path fill="#F5518E" d="M25.235,44.973v0.912h-4.642v-8.396h0.959v7.484H25.235z"/>
	<path fill="#F5518E" d="M31.955,38.233l-0.408,0.899c-0.756-0.503-1.643-0.708-2.314-0.708c-1.079,0-1.787,0.408-1.787,1.115
		c0,2.159,4.726,1.032,4.714,4.078c0,1.403-1.235,2.303-3.035,2.303c-1.223,0-2.422-0.528-3.214-1.284l0.432-0.863
		c0.779,0.755,1.847,1.188,2.795,1.188c1.211,0,1.967-0.492,1.967-1.295c0.012-2.207-4.714-1.031-4.714-4.042
		c0-1.319,1.164-2.17,2.902-2.17C30.263,37.454,31.258,37.765,31.955,38.233z"/>
	<path fill="#F5518E" d="M38.771,44.973v0.912h-4.642v-8.396h0.959v7.484H38.771z"/>
	<path fill="#F5518E" d="M47.075,43.366c0,1.631-0.899,2.566-2.398,2.566c-0.936,0-1.739-0.444-2.327-1.199l0.479-0.768
		c0.528,0.636,1.188,0.972,1.835,0.972c0.924,0,1.439-0.552,1.439-1.595v-4.929h-2.998v-0.924h3.97V43.366z"/>
	<path fill="#F5518E" d="M54.574,38.233l-0.408,0.899c-0.756-0.503-1.643-0.708-2.314-0.708c-1.079,0-1.787,0.408-1.787,1.115
		c0,2.159,4.726,1.032,4.714,4.078c0,1.403-1.235,2.303-3.035,2.303c-1.223,0-2.422-0.528-3.214-1.284l0.432-0.863
		c0.779,0.755,1.847,1.188,2.795,1.188c1.211,0,1.967-0.492,1.967-1.295c0.012-2.207-4.714-1.031-4.714-4.042
		c0-1.319,1.164-2.17,2.902-2.17C52.882,37.454,53.877,37.765,54.574,38.233z"/>
	<path fill="#F5518E" d="M64.748,41.687c0,2.363-1.942,4.246-4.39,4.246c-2.458,0-4.401-1.883-4.401-4.246
		c0-2.375,1.943-4.222,4.401-4.222C62.805,37.465,64.748,39.324,64.748,41.687z M56.928,41.687c0,1.847,1.56,3.322,3.43,3.322
		c1.871,0,3.406-1.475,3.406-3.322c0-1.847-1.535-3.31-3.406-3.31C58.488,38.377,56.928,39.84,56.928,41.687z"/>
	<path fill="#F5518E" d="M72.5,45.885l-5.037-6.74v6.74h-0.959v-8.396H67.5l5.037,6.752v-6.752h0.948v8.396H72.5z"/>
	<path fill="#F5518E" d="M25.208,60.285h-1.151l-2.555-3.514l-2.53,3.514h-1.128l3.082-4.317l-2.866-4.078h1.128l2.314,3.238
		l2.339-3.238h1.127l-2.854,4.03L25.208,60.285z"/>
	<path fill="#F5518E" d="M34.435,60.285l-0.012-6.92l-3.059,6.033H30.79l-3.047-6.033v6.92h-0.911v-8.396h1.188l3.07,6.045
		l3.058-6.045h1.176v8.396H34.435z"/>
	<path fill="#F5518E" d="M42.526,59.373v0.912h-4.642v-8.396h0.959v7.484H42.526z"/>
	<path fill="#F5518E" d="M49.93,52.813v7.472h-0.96v-7.472h-2.734v-0.924h6.44v0.924H49.93z"/>
	<path fill="#F5518E" d="M60.428,60.285h-1.151l-2.555-3.514l-2.53,3.514h-1.128l3.082-4.317l-2.866-4.078h1.128l2.314,3.238
		l2.339-3.238h1.127l-2.854,4.03L60.428,60.285z"/>
	<path fill="#F5518E" d="M64.606,52.813v7.472h-0.96v-7.472h-2.734v-0.924h6.44v0.924H64.606z"/>
</g>
</svg>
