<?xml version="1.0" encoding="utf-8"?>
<!-- Generator: Adobe Illustrator 17.0.0, SVG Export Plug-In . SVG Version: 6.00 Build 0)  -->
<!DOCTYPE svg PUBLIC "-//W3C//DTD SVG 1.1//EN" "http://www.w3.org/Graphics/SVG/1.1/DTD/svg11.dtd">
<svg version="1.1" id="Layer_1" xmlns="http://www.w3.org/2000/svg" xmlns:xlink="http://www.w3.org/1999/xlink" x="0px" y="0px"
	 width="226.352px" height="227.059px" viewBox="0 0 226.352 227.059" enable-background="new 0 0 226.352 227.059"
	 xml:space="preserve">
<g>
	<circle fill="#7AD3D7" cx="112.992" cy="113.699" r="113.36"/>
	<g>
		<g>
			<polygon fill="#FFFFFF" points="71.492,208.178 83.992,197.761 96.492,208.178 96.492,180 71.492,180 			"/>
			<path fill="#353535" d="M59.492,32.125v157h103c5.523,0,10-4.477,10-10v-137c0-5.523-4.477-10-10-10"/>
			<polyline fill="#606060" points="146.492,32.125 146.492,189.125 157.492,189.125 157.492,32.125 			"/>
			<g>
				<g>
					<g>
						<rect x="70.992" y="51.366" fill="#FFFFFF" width="47" height="5"/>
						<polygon fill="#8CBEB7" points="120.492,48.866 68.492,48.866 68.492,58.866 120.492,58.866 120.492,48.866 						"/>
					</g>
				</g>
				<g>
					<g>
						<rect x="80.992" y="77.783" fill="#FFFFFF" width="20" height="5"/>
						<polygon fill="#82A1B6" points="103.492,75.283 78.492,75.283 78.492,85.283 103.492,85.283 103.492,75.283 						"/>
					</g>
				</g>
				<g>
					<g>
						<rect x="115.992" y="77.783" fill="#FFFFFF" width="21" height="5"/>
						<polygon fill="#DF5282" points="139.492,75.283 113.492,75.283 113.492,85.283 139.492,85.283 139.492,75.283 						"/>
					</g>
				</g>
				<g>
					<g>
						<rect x="98.992" y="104.199" fill="#FFFFFF" width="19" height="5"/>
						<polygon fill="#F58F8B" points="120.492,101.699 96.492,101.699 96.492,111.699 120.492,111.699 120.492,101.699 						"/>
					</g>
				</g>
				<g>
					<g>
						<rect x="88.992" y="130.616" fill="#FFFFFF" width="19" height="5"/>
						<polygon fill="#82A1B6" points="110.492,128.116 86.492,128.116 86.492,138.116 110.492,138.116 110.492,128.116 						"/>
					</g>
				</g>
				<g>
					<g>
						<rect x="121.992" y="130.616" fill="#FFFFFF" width="12" height="5"/>
						<polygon fill="#C9D434" points="136.492,128.116 119.492,128.116 119.492,138.116 136.492,138.116 136.492,128.116 						"/>
					</g>
				</g>
				<g>
					<g>
						<rect x="70.992" y="157.033" fill="#FFFFFF" width="47" height="5"/>
						<polygon fill="#8CBEB7" points="120.492,154.533 68.492,154.533 68.492,164.533 120.492,164.533 120.492,154.533 						"/>
					</g>
				</g>
			</g>
		</g>
		<g>
			<circle fill="#FFFFFF" cx="59.145" cy="112.073" r="26.126"/>
			<polygon fill="#353535" points="52,100.954 71.252,112.069 52,123.183 			"/>
		</g>
	</g>
</g>
</svg>
