<?xml version="1.0" encoding="utf-8"?>
<!-- Generator: Adobe Illustrator 17.0.0, SVG Export Plug-In . SVG Version: 6.00 Build 0)  -->
<!DOCTYPE svg PUBLIC "-//W3C//DTD SVG 1.1//EN" "http://www.w3.org/Graphics/SVG/1.1/DTD/svg11.dtd">
<svg version="1.1" id="Layer_1" xmlns="http://www.w3.org/2000/svg" xmlns:xlink="http://www.w3.org/1999/xlink" x="0px" y="0px"
	 width="40px" height="40px" viewBox="0 0 40 40" enable-background="new 0 0 40 40" xml:space="preserve">
<g>
	<defs>
		<path id="SVGID_1_" d="M28.458,9.866c1.383,0.79,3.149,0.322,3.947-1.045c0.799-1.367,0.326-3.115-1.057-3.904
			c-1.383-0.789-3.149-0.32-3.948,1.047C26.602,7.33,27.076,9.078,28.458,9.866z M22.542,28.35c-1.271,0-2.476-0.28-3.556-0.777
			l-2.008,3.559c1.677,0.822,3.566,1.286,5.565,1.286c1.162,0,2.287-0.16,3.355-0.452c0.188-1.149,0.878-2.206,1.977-2.834
			c1.098-0.627,2.367-0.688,3.466-0.278c2.137-2.079,3.528-4.905,3.731-8.054l-4.12-0.06C30.571,25.007,26.953,28.35,22.542,28.35z
			 M22.542,11.651c4.411,0,8.029,3.344,8.409,7.609l4.119-0.06c-0.203-3.149-1.594-5.975-3.731-8.054
			c-1.099,0.411-2.368,0.348-3.466-0.278c-1.099-0.627-1.788-1.685-1.977-2.834c-1.068-0.292-2.192-0.451-3.355-0.451
			c-1.998,0-3.887,0.464-5.564,1.285l2.008,3.559C20.066,11.93,21.271,11.651,22.542,11.651z M14.099,20.001
			c0-2.825,1.419-5.32,3.59-6.832l-2.113-3.5c-2.529,1.672-4.411,4.226-5.193,7.218c0.912,0.736,1.496,1.857,1.496,3.114
			c0,1.256-0.584,2.377-1.496,3.113c0.781,2.993,2.663,5.547,5.193,7.219l2.113-3.501C15.518,25.321,14.099,22.826,14.099,20.001z
			 M28.459,30.133c-1.382,0.79-1.857,2.537-1.058,3.903c0.798,1.367,2.564,1.836,3.947,1.046c1.382-0.789,1.856-2.536,1.058-3.903
			C31.608,29.813,29.84,29.344,28.459,30.133z M7.821,17.142c-1.597,0-2.891,1.28-2.891,2.859c0,1.579,1.294,2.858,2.891,2.858
			c1.596,0,2.89-1.28,2.89-2.858C10.711,18.421,9.417,17.142,7.821,17.142z"/>
	</defs>
	<clipPath id="SVGID_2_">
		<use xlink:href="#SVGID_1_"  overflow="visible"/>
	</clipPath>
	<rect x="0.944" y="0.547" clip-path="url(#SVGID_2_)" fill="#FFFFFF" width="38.113" height="38.905"/>
</g>
</svg>
