<?xml version="1.0" encoding="utf-8"?>
<!-- Generator: Adobe Illustrator 17.0.0, SVG Export Plug-In . SVG Version: 6.00 Build 0)  -->
<!DOCTYPE svg PUBLIC "-//W3C//DTD SVG 1.1//EN" "http://www.w3.org/Graphics/SVG/1.1/DTD/svg11.dtd">
<svg version="1.1" id="Layer_1" xmlns="http://www.w3.org/2000/svg" xmlns:xlink="http://www.w3.org/1999/xlink" x="0px" y="0px"
	 width="40px" height="40px" viewBox="0 0 40 40" enable-background="new 0 0 40 40" xml:space="preserve">
<path fill="#FFFFFF" d="M28.735,21.003c-0.04-4.053,3.305-5.996,3.454-6.093c-1.881-2.751-4.809-3.127-5.852-3.171
	c-2.492-0.252-4.862,1.467-6.127,1.467c-1.262,0-3.213-1.43-5.28-1.392c-2.716,0.04-5.221,1.578-6.619,4.012
	c-2.821,4.896-0.723,12.15,2.028,16.123c1.344,1.943,2.947,4.127,5.051,4.049c2.026-0.081,2.793-1.31,5.242-1.31
	c2.45,0,3.138,1.31,5.283,1.271c2.18-0.041,3.562-1.981,4.897-3.931c1.543-2.256,2.179-4.439,2.216-4.552
	C32.981,27.454,28.777,25.843,28.735,21.003z M24.705,9.11C25.823,7.755,26.576,5.875,26.37,4c-1.609,0.066-3.56,1.072-4.713,2.423
	c-1.036,1.199-1.942,3.113-1.699,4.951C21.754,11.515,23.587,10.462,24.705,9.11z"/>
</svg>
